<?xml version="1.0" encoding="UTF-8" standalone="no"?>
<svg
   xmlns:dc="http://purl.org/dc/elements/1.1/"
   xmlns:cc="http://creativecommons.org/ns#"
   xmlns:rdf="http://www.w3.org/1999/02/22-rdf-syntax-ns#"
   xmlns:svg="http://www.w3.org/2000/svg"
   xmlns="http://www.w3.org/2000/svg"
   xmlns:sodipodi="http://sodipodi.sourceforge.net/DTD/sodipodi-0.dtd"
   xmlns:inkscape="http://www.inkscape.org/namespaces/inkscape"
   viewBox="0 0 531 531"
   height="531"
   width="531"
   id="svg2"
   version="1.1"
   sodipodi:docname="aperture.svg"
   inkscape:version="0.92.3 (2405546, 2018-03-11)">
  <sodipodi:namedview
     pagecolor="#ffffff"
     bordercolor="#666666"
     borderopacity="1"
     objecttolerance="10"
     gridtolerance="10"
     guidetolerance="10"
     inkscape:pageopacity="0"
     inkscape:pageshadow="2"
     inkscape:window-width="1398"
     inkscape:window-height="686"
     id="namedview6"
     showgrid="false"
     inkscape:zoom="0.44444444"
     inkscape:cx="-274.5"
     inkscape:cy="265.5"
     inkscape:window-x="0"
     inkscape:window-y="33"
     inkscape:window-maximized="0"
     inkscape:current-layer="svg2" />
  <metadata
     id="metadata8">
    <rdf:RDF>
      <cc:Work
         rdf:about="">
        <dc:format>image/svg+xml</dc:format>
        <dc:type
           rdf:resource="http://purl.org/dc/dcmitype/StillImage" />
        <dc:title />
      </cc:Work>
    </rdf:RDF>
  </metadata>
  <defs
     id="defs6" />
  <path
     id="path819"
     d="m 246.92778,518.84045 c -1.65,-0.22948 -7.275,-0.90355 -12.5,-1.49795 -14.13525,-1.60803 -31.38406,-5.46138 -47.10119,-10.52231 -11.25017,-3.62257 -14.14712,-4.93448 -14.79732,-6.70113 -1.2228,-3.32242 -22.29107,-123.84047 -21.7446,-124.38694 0.36481,-0.36481 191.52163,128.32532 193.61415,130.34445 1.00747,0.97214 -2.75069,2.24354 -16.83986,5.697 -21.69002,5.31654 -32.9922,6.74035 -56.63118,7.13422 -11.55,0.19244 -22.35,0.16213 -24,-0.0673 z m 65.49393,-56.60388 c -42.36112,-29.29329 -51.96318,-36.33813 -50.41115,-36.98565 2.59357,-1.08207 229.57864,-45.00049 230.06481,-44.51431 0.58091,0.5809 -8.16835,16.06079 -13.91748,24.62394 -25.17713,37.50051 -58.14162,66.82062 -97.59043,86.80133 -6.79817,3.44326 -13.13816,6.26047 -14.08886,6.26047 -0.95069,0 -25.2763,-16.2836 -54.05689,-36.18578 z m -168.77639,25.684 C 124.03433,477.44219 104.80395,462.89094 86.88157,444.96855 73.436097,431.52308 64.568436,420.76517 54.696097,405.92235 46.180196,393.1189 34.053925,369.86335 35.020368,368.18858 c 2.981267,-5.16632 71.712872,-105.79409 72.038162,-105.4688 0.47159,0.47158 45.33274,229.0724 45.01588,229.38926 -0.11302,0.11302 -3.90611,-1.77179 -8.42909,-4.18847 z M 374.05735,383.17235 c 0.41119,-0.6875 30.64726,-44.59298 67.19128,-97.56774 36.54403,-52.97474 66.81997,-95.94143 67.27988,-95.48152 1.5385,1.5385 6.886,24.64753 8.86257,38.29927 5.92866,40.94785 2.4097,78.80335 -11.12704,119.70005 l -4.03819,12.20007 -5.14904,1.03171 c -19.59487,3.92623 -121.04576,23.06816 -122.25963,23.06816 -0.938,0 -1.22503,-0.47219 -0.75983,-1.25 z M 23.554469,340.23623 c -3.064735,-9.30807 -6.776967,-25.37159 -8.805488,-38.10297 -2.781506,-17.45726 -2.509925,-58.69493 0.501519,-76.1523 2.723434,-15.78777 5.174573,-25.74662 9.781677,-39.74246 3.161717,-9.60493 3.788471,-10.73998 6.206237,-11.23952 11.313489,-2.3375 128.563026,-22.53629 128.894436,-22.20488 0.29629,0.29628 -131.456581,190.1634 -134.233648,193.44213 -0.146219,0.17263 -1.201349,-2.52737 -2.344733,-6 z M 424.37504,274.38664 c -0.029,-0.80536 -8.95111,-53.43928 -19.8269,-116.96429 -10.87579,-63.524999 -19.6718,-115.642759 -19.54669,-115.817229 0.48671,-0.6788 10.40905,4.92349 20.42633,11.53298 27.32316,18.028063 53.30577,43.540163 70.84288,69.560019 11.43383,16.9644 24.83606,43.08112 23.89482,46.56349 -0.43759,1.619 -71.58106,102.21547 -74.34613,105.12503 -1.22187,1.28571 -1.398,1.28571 -1.44431,0 z M 285.16835,93.153541 c -54.24671,-37.52715 -98.31768,-68.53736 -97.93548,-68.91157 0.3822,-0.37421 6.02552,-2.09826 12.54072,-3.83121 49.08064,-13.05477 98.14049,-11.6406 146.48032,4.22234 11.9814,3.93175 15.51739,5.49417 16.20247,7.15929 0.91995,2.23599 22.08054,128.854149 21.61249,129.322199 -0.14857,0.14858 -44.65381,-30.43389 -98.90052,-67.961049 z M 38.427773,153.96204 c 0,-1.8025 9.592731,-19.0057 15.730839,-28.21103 10.36511,-15.54459 18.622519,-25.64147 31.769161,-38.846267 13.719926,-13.780622 24.146897,-22.351292 40.388187,-33.197902 14.03854,-9.37554 35.62672,-20.61038 38.53525,-20.05438 1.16252,0.22224 26.81325,17.44713 57.00161,38.277543 43.87008,30.271006 54.50522,38.027696 52.98144,38.641716 -1.44339,0.58163 -216.325512,40.73235 -233.156487,43.56529 -1.7875,0.30086 -3.25,0.22213 -3.25,-0.17497 z"
     style="fill:#e6e6e6" />
</svg>
