<?xml version="1.0" encoding="UTF-8" standalone="no"?>
<svg
   xmlns:dc="http://purl.org/dc/elements/1.1/"
   xmlns:cc="http://creativecommons.org/ns#"
   xmlns:rdf="http://www.w3.org/1999/02/22-rdf-syntax-ns#"
   xmlns:svg="http://www.w3.org/2000/svg"
   xmlns="http://www.w3.org/2000/svg"
   viewBox="0 0 206 206"
   height="206"
   width="206"
   id="svg2"
   version="1.1">
  <metadata
     id="metadata8">
    <rdf:RDF>
      <cc:Work
         rdf:about="">
        <dc:format>image/svg+xml</dc:format>
        <dc:type
           rdf:resource="http://purl.org/dc/dcmitype/StillImage" />
        <dc:title></dc:title>
      </cc:Work>
    </rdf:RDF>
  </metadata>
  <defs
     id="defs6" />
  <g
     transform="translate(-0.02087991,1.323868)"
     id="g4520">
    <path
       id="path4534"
       d="M 105.5951,54.13707 C 91.43155,53.798171 76.903682,58.914932 67.283414,69.563806 56.296328,81.750092 52.742878,99.568577 56.145135,115.37801 c 4.924076,16.56713 18.956036,30.29539 35.736285,34.55773 15.79259,3.22077 33.15476,-1.0792 44.89552,-12.33785 8.16991,-7.57654 13.64929,-18.26019 13.83528,-29.51048 1.08764,-10.670497 0.21756,-22.214616 -6.25803,-31.176487 -7.34009,-11.089043 -18.96648,-19.566701 -32.00153,-22.417717 -2.2454,-0.222891 -4.5011,-0.343772 -6.75756,-0.356136 z"
       style="fill:#cdcdcd;fill-opacity:1" />
  </g>
  <path
     id="path4530"
     d="M 93.064919,205.57431 C 51.678109,201.68764 14.287205,170.7043 3.8416824,130.29355 -0.96817764,114.7322 -0.95041764,97.793435 2.1735524,81.913315 8.4258427,53.387088 26.911923,28.030805 52.324106,13.576874 c 10.29634,-6.02155 22.056605,-9.09268 33.366841,-12.49414 16.904403,0.57593 34.502973,-2.05553003 50.488033,4.88073 36.01603,12.461482 64.21051,45.764223 68.41497,83.931684 5.87762,40.566762 -15.83097,83.114112 -51.66667,102.797242 -18.04267,10.05783 -39.26124,14.82279 -59.862361,12.88192 z M 117.6091,161.09546 c 29.81069,-7.40798 50.88832,-40.12634 43.59345,-70.307981 C 155.25584,61.220197 124.2898,38.309419 94.167634,44.5278 c -29.015093,4.434898 -52.839837,31.933871 -50.98836,61.60325 0.68024,26.50298 22.238968,50.50391 47.937034,55.61617 8.765368,0.97755 17.823462,1.15173 26.492792,-0.65176 z M 92.183949,149.25934 c -0.374929,-8.71753 8.548921,-16.67545 11.863601,-25.08655 -7.059364,-3.35859 -22.234474,-0.68711 -32.384886,-1.661 -5.383295,2.14484 -19.409726,-3.19988 -11.808341,-7.46467 8.794167,-0.4546 17.82773,0.41482 26.415572,-1.42397 C 79.990664,100.59048 71.145398,88.553892 65.60907,75.045104 c 4.98138,-11.265222 11.037014,8.802036 15.032731,13.195068 5.63365,13.733038 10.963805,-7.357447 15.550904,-12.205852 4.940605,-5.31549 9.306265,-23.91874 17.823015,-18.008088 -2.85362,8.982992 -8.88386,16.694891 -13.25205,25.054707 15.18694,0.417094 30.38381,0.591436 45.56024,1.297406 6.19888,11.679017 -13.92011,5.685045 -20.2504,7.300827 -14.43769,-2.115541 1.10978,12.120498 2.80252,18.371318 2.62805,8.06724 14.56966,17.02612 9.14286,25.4291 -8.35041,-4.06027 -10.54726,-15.8557 -16.51192,-22.95177 -6.36416,3.96003 -10.92786,17.20794 -16.44295,24.91655 -3.35119,3.27816 -6.663774,16.116 -12.880071,11.81497 z M 154.57046,52.100915 c 12.73671,-5.463005 6.35547,-26.690381 -7.32385,-24.045203 -15.60355,1.830123 -12.33645,27.373115 3.12249,25.355112 l 2.09054,-0.441978 z"
     style="fill:#9e9e9e;fill-opacity:1;stroke-width:0.99999994" />
</svg>
