<svg xmlns="http://www.w3.org/2000/svg" width="377.685" height="143.754"><circle cx="209.358" cy="64.184" r="188.927" fill="none"/><path d="M259.887.002c-8.881-.051-15.695 1.1-20.51 3.455-6.74 3.298-8.27 5.354-18.247 24.552-5.222 10.049-6.826 14.067-5.965 14.934.648.653 7.961 4.317 16.252 8.143 8.29 3.825 15.248 7.483 15.463 8.127.228.686-4.144 2.375-10.584 4.087l-17.11 4.55c-3.91 1.038-6.133 2.19-6.133 3.179 0 .853 3.36 7.57 7.467 14.924 4.107 7.354 7.467 14.066 7.467 14.914 0 1.797 1.233 2.1-21.59-5.283-9.234-2.987-17.043-5.178-17.355-4.866-.312.312-1.267 4.553-2.123 9.422-2.452 13.944.216 16.82 17.95 19.36 11.565 1.655 14.173.633 16.835-6.6 1.205-3.275 2.45-4.874 3.97-5.103 1.219-.184 7.877.638 14.797 1.828 6.92 1.19 28.179 4.84 47.24 8.113 19.063 3.272 35.12 6.408 35.682 6.97.563.563.894 3.12.737 5.68-.44 7.149 2.595 9.978 12.656 11.797 15.12 2.734 20.469 1.957 22.455-3.267.561-1.476 2.735-12.608 4.83-24.737 4.11-23.802 4.186-29.125.516-36.32-1.202-2.355-1.829-4.489-1.393-4.742.436-.254 3.541-1.249 6.9-2.213 6.933-1.99 8.82-4.238 6.862-8.176-2.51-5.047-12.496-6.307-18.551-2.34-3.574 2.342-3.92 1.517-6.031-14.32-.98-7.345-2.512-15.105-3.405-17.246-5.698-13.662-26.15-21.583-70.85-27.436C271.29.494 265.217.032 259.888.002zM90.448 7.476c-26.928-.02-43.133 3.277-51.373 10.33-4.998 4.278-5.977 6.283-11.211 22.98-2.047 6.532-4.17 12.326-4.719 12.876-.62.62-1.955.1-3.527-1.377-1.392-1.308-4.303-2.867-6.469-3.465C5.953 46.833-1.419 51.127.235 56.34c.57 1.794 8.615 6.457 11.143 6.457 2.344 0 2.18 2.39-.373 5.425C5.76 74.454 4.84 80.678 5.23 107.201l.356 24.05 2.992 2.573c2.784 2.393 3.84 2.572 15.14 2.572 11.112 0 12.39-.208 14.979-2.435 2.064-1.776 2.982-3.781 3.39-7.403.332-2.938 1.193-5.21 2.108-5.56.85-.327 23.814-.278 51.03.11l49.482.702.699 4.666c1.285 8.57 2.655 9.335 17.408 9.742l12.89.358 3.208-3.207 3.207-3.21v-14.036c0-10.72-.313-13.934-1.326-13.596-.73.243-5.295 6.404-10.143 13.69-4.848 7.285-9.281 13.403-9.853 13.595-.67.225-.795-8.112-.352-23.346l.69-23.697-4.71.654c-9.56 1.33-31.573 3.06-33.574 2.64-1.663-.35.387-2.955 10.537-13.391 11.181-11.496 12.47-13.202 11.442-15.125-1.794-3.352-4.7-4.407-15.307-5.551-21.222-2.29-70.213-1.104-87.424 2.115-3.036.568-5.329.56-5.687-.02-.33-.534 1.127-6.456 3.238-13.16 3.335-10.59 4.328-12.562 7.578-15.04 5.653-4.312 13.788-5.74 36.758-6.456 32.734-1.02 52.594 1.557 57.463 7.455 1.033 1.252 3.151 1.774 7.201 1.774 6.763 0 7.333-1.42 3.09-7.664-5.867-8.634-19.665-12.377-49.088-13.315a392.489 392.489 0 0 0-12.205-.209zm166.71 4.715c1.415-.003 3 .002 4.78.01 12.202.055 19.107.707 31.352 2.959 27.536 5.065 39.779 9.533 44.07 16.082 1.599 2.44 4.699 19.067 4.74 25.422.022 3.39-1.653 3.656-7.363 1.168-5.955-2.596-30.419-8.53-47.018-11.404-19.26-3.336-30.12-4.646-46.132-5.567-10.589-.608-12.532-.99-12.52-2.459.025-3.044 11.066-21.734 14.205-24.047 2.406-1.772 3.985-2.142 13.887-2.164zM26.869 80.298c3.173.122 7.062 1.399 11.799 3.833 11.208 5.759 14.253 12.035 7.15 14.74-4.073 1.55-12.696 2.057-18.363 1.078-9.292-1.606-13.519-10.252-8.094-16.559 1.875-2.18 4.334-3.213 7.508-3.092zm318.238 5.965c8.71 0 13.253 10.78 6.99 16.584-2.506 2.323-3.728 2.605-10.931 2.52-9.498-.113-13.687-1.146-16.946-4.182-3.03-2.823-2.988-4.797.168-7.953 2.891-2.891 15.014-6.969 20.72-6.969z"/><path d="M338.92 141.642c-12.215-2.396-13.867-3.853-13.867-12.225 0-4.474-.396-5.8-1.867-6.257-3.066-.954-95.531-16.623-98.118-16.626-1.942-.003-2.612.9-3.61 4.866-1.737 6.897-4.447 8.41-13.513 7.547-11.283-1.076-17.342-2.978-19.732-6.197-1.985-2.673-2.032-3.376-.77-11.486.739-4.752 1.766-8.901 2.283-9.22.517-.32 9.391 2.13 19.72 5.445 10.55 3.385 19.185 5.623 19.703 5.105.517-.518-2.608-7.354-7.13-15.596-4.43-8.072-7.871-15.22-7.65-15.885.222-.665 7.81-3.168 16.863-5.563 11.814-3.125 16.551-4.83 16.784-6.041.24-1.245-3.903-3.604-15.768-8.981-8.851-4.012-16.339-7.691-16.64-8.178-.542-.878 11.596-24.894 15.963-31.582 7.443-11.4 29.416-12.781 71.183-4.474 27.751 5.519 39.452 11.137 44.784 21.501 1.192 2.319 2.893 10.114 4.144 18.996 1.167 8.284 2.406 15.524 2.754 16.087.361.584 1.939.095 3.669-1.137 4.132-2.943 8.674-3.687 13.26-2.173 8.51 2.809 7.24 8.744-2.308 10.787-3.376.722-6.525 1.649-7 2.059-.473.41.213 2.808 1.526 5.327 3.75 7.194 3.655 13.24-.59 37.568-2.122 12.162-4.144 22.86-4.495 23.773-.707 1.843-5.898 4.847-8.059 4.664-.762-.064-5.946-1.011-11.52-2.104zm11.754-36.723c5.343-2.763 6.82-8.378 3.763-14.292-2.404-4.648-7.016-6.07-14.604-4.504-20.304 4.194-25.346 14.568-9.32 19.178 5.7 1.639 16.655 1.431 20.161-.382zm-8.116-49.089c-.053-2.328-.706-8.46-1.452-13.626-1.573-10.886-3.746-14.266-11.792-18.343-14.051-7.12-63.785-15.204-79.262-12.883-2.954.443-6.323 1.87-8.26 3.5-3.207 2.699-13.806 22.172-13.806 25.366 0 1.302 1.546 1.62 7.887 1.62 23.973 0 79.645 9.64 98.247 17.012 7.33 2.905 8.554 2.521 8.438-2.646zM8.67 132.644l-2.685-2.685.334-26.381c.313-24.706.481-26.657 2.656-30.72 1.277-2.385 3.077-4.964 4-5.73 2.847-2.363 1.886-4.06-3.3-5.827-9.062-3.088-11.549-7.74-5.742-10.744 5.356-2.77 12.228-1.436 15.995 3.103 2.92 3.519 4.173 1.614 9.07-13.794 5.614-17.663 8.389-21.786 17.32-25.736 9.647-4.266 18.138-5.2 47.268-5.2 28.583 0 37.315.916 46.64 4.89 5.76 2.455 13.094 9.033 13.094 11.743 0 2.853-7.306 3.421-10.667.83-4.108-3.166-9.349-5.264-15.897-6.364-10.348-1.738-39.486-2.324-54.354-1.094-25.012 2.07-27.898 3.976-33.686 22.242-2.088 6.59-3.796 12.536-3.796 13.216 0 1.268 2.379 1.125 18.666-1.127 22.57-3.12 79.924-2.094 86.984 1.557 5.656 2.925 5.034 4.281-8.028 17.506-6.76 6.844-12.29 13.018-12.29 13.722 0 1.653 2.492 1.61 22.296-.376 9.036-.906 16.766-1.265 17.178-.796.412.468.365 10.9-.103 23.181-.469 12.282-.606 22.73-.304 23.218 1.012 1.638 2.703-.407 11.973-14.477l9.228-14.004.3 13.762c.281 12.938.158 13.913-2.053 16.267-2.212 2.354-3.11 2.504-14.967 2.504-14.369 0-16.216-.87-17.437-8.207-.372-2.233-.866-4.664-1.097-5.403-.332-1.061-11.25-1.286-51.917-1.067l-51.496.277-.599 5.214c-.938 8.166-2.903 9.186-17.701 9.186-11.61 0-12.326-.129-14.883-2.686zM46.706 99.57c2.96-1.53 3.697-3.13 3.18-6.906-.393-2.88-4.666-6.466-11.72-9.832-8.81-4.205-14.805-4.505-18.61-.93-6.428 6.037-3.744 15.471 5.23 18.39 4.357 1.416 18.698.944 21.92-.722z"/><path d="M256.383 2.572c-10.804.043-12.743.43-16.13 2.254-2.347 1.263-5.284 3.424-6.528 4.8-2.536 2.808-17.95 31.714-17.273 32.391.239.24 7.372 3.597 15.851 7.461 8.48 3.864 16.136 7.75 17.016 8.637 1.423 1.433 1.407 1.756-.148 2.912-.962.715-9.003 3.177-17.868 5.473-8.864 2.295-16.117 4.634-16.117 5.197 0 .563 3.615 7.526 8.033 15.473 7.6 13.669 8.766 17.252 5.6 17.209-.752-.01-9.515-2.651-19.475-5.868-9.96-3.216-18.42-5.847-18.802-5.847-.382 0-1.292 3.835-2.022 8.523-1.7 10.927-.57 13.116 7.694 14.902 9.012 1.949 18.47 2.562 20.652 1.34 1.094-.612 2.723-3.435 3.621-6.273 1.174-3.71 2.246-5.246 3.814-5.47 2.716-.39 96.123 15.434 99.418 16.841 2.061.88 2.4 1.827 2.4 6.709 0 8.253 1.221 9.34 12.917 11.5 13.2 2.439 13.202 2.439 16.35-.34 2.442-2.156 3.098-4.6 6.458-24.043 4.573-26.456 4.665-30.472.866-38.23-3.05-6.228-2.604-7.805 2.218-7.844 3.84-.031 10.15-2.463 10.803-4.164.417-1.086-.364-2.591-2.137-4.115-3.948-3.396-10.052-3.239-14.341.37-3.262 2.745-6.45 2.84-6.483.194-.079-6.459-4.571-31.412-6.242-34.67-5.35-10.434-18.065-15.89-51.875-22.263-13.242-2.496-18.942-3.024-33.066-3.06-1.936-.004-3.66-.005-5.204 0zm-.207 7.045c19.871-.044 60.611 6.83 73.135 13.176 4.754 2.408 11.742 9.078 11.742 11.205 0 .546.747 6.35 1.66 12.9.914 6.55 1.409 12.567 1.1 13.371-.72 1.877-3.401 1.794-8.094-.248-16.931-7.368-74.539-17.447-99.91-17.48-5.998-.008-8.858-.426-9.181-1.344-.685-1.946 10.204-23.227 13.644-26.664 1.613-1.612 4.91-3.472 7.324-4.133 1.937-.53 4.9-.775 8.58-.783zm-162.056.41c-32.042-.032-37.915.633-48.217 5.47-8.35 3.921-10.375 7.092-16.06 25.13-2.81 8.913-5.725 16.295-6.561 16.617-.836.322-2.493-.625-3.732-2.131-4.121-5.008-9.466-6.392-14.981-3.879-5.382 2.452-2.802 6.424 6.219 9.576 2.274.795 4.356 2.024 4.627 2.73.27.707-.806 2.988-2.393 5.069-5.266 6.904-5.738 9.876-5.789 36.385-.052 27.418.091 28.034 6.793 29.142 6.098 1.009 22.722-.2 24.283-1.765.746-.748 1.608-3.868 1.916-6.934l.56-5.574 50.669-.295c27.866-.163 51.746-.033 53.066.287 1.928.468 2.399 1.326 2.399 4.365 0 3.889 1.555 7.843 3.627 9.227.645.43 6.738.792 13.54.8 16.27.022 16.079.218 15.67-16.025l-.302-12.058-8.951 13.517c-8.234 12.435-10.778 15.046-12.284 12.61-.307-.498-.148-11.177.354-23.733.502-12.555.76-22.994.572-23.197-.187-.203-9.027.482-19.644 1.52-14.06 1.374-19.625 1.566-20.48.71-.857-.856 1.1-3.586 7.202-10.05 19.617-20.784 17.693-18.216 15.383-20.53-2.717-2.721-8.92-3.495-35.22-4.402-22.649-.78-49.537.547-63.008 3.113-7.534 1.435-9.526 1.26-9.526-.838 0-.734 1.724-6.814 3.83-13.511 4.49-14.275 7.55-18.28 15.875-20.774 13.192-3.952 58.81-4.545 75.762-.984 4.617.97 9.196 2.783 11.996 4.75 3.512 2.468 5.247 3.036 7.733 2.539 1.762-.353 3.205-1.024 3.205-1.492 0-1.859-5.83-7.626-9.711-9.606-9.598-4.896-16.737-5.748-48.422-5.779zm-67.502 68.3c3.091.04 6.817 1.18 11.525 3.429 12.964 6.188 16.822 13.806 9.31 18.386-2.72 1.66-5.3 2.101-12 2.057-10.813-.071-15.244-1.593-18.45-6.336-3.26-4.823-2.592-9.848 1.906-14.346 2.163-2.162 4.618-3.228 7.709-3.19zm318.594 6.085c11.814.203 16.702 15.762 5.43 21.592-6.7 3.464-24.09.883-28.485-4.227-3.103-3.607-3.063-5.007.26-8.955 2.776-3.3 11.677-6.906 20.341-8.24.847-.13 1.666-.184 2.454-.17z"/><path d="M174.538 3.69c-.49-.139-1.365 2.172-2.018 5.394-4.679 23.104-4.71 23.205-7.467 24.6-1.466.74-6.028 1.358-10.134 1.372-9.263.031-18.666 1.114-18.666 2.149 0 .428 4.32 5.197 9.6 10.6 5.28 5.401 9.6 10.254 9.6 10.78 0 .527-3.6 4.916-8 9.754-4.4 4.84-8 9.178-8 9.641 0 .463 1.8.589 4 .28 8.962-1.262 24.326-2.415 25.18-1.891.503.308.568 7.22.147 15.361-.558 10.78-.439 14.8.443 14.8.666 0 4.416-4.92 8.332-10.933 3.917-6.013 7.625-11.303 8.243-11.756 1.554-1.139 5.71-.288 18.722 3.84 6.16 1.954 11.325 3.262 11.477 2.905.152-.357-2.368-5.436-5.6-11.286-3.232-5.85-5.877-11.424-5.877-12.386 0-1.71 1.414-2.198 21.201-7.328 2.814-.73 4.284-1.598 3.698-2.184-.536-.535-6.238-3.327-12.67-6.203-8.504-3.803-11.783-5.798-12.014-7.31-.175-1.145 1.625-6.562 4-12.038s4.318-10.356 4.318-10.847c0-.491-5.791 2.03-12.869 5.603-7.077 3.574-13.492 6.26-14.256 5.967-.763-.293-3.428-6.694-5.921-14.223-2.494-7.529-4.913-14.099-5.377-14.601a.2.2 0 0 0-.092-.06zm114.666 7.773c.019.303.028.606.05.91 1.436.09 3.49.229 5.358.347l-.125-.027c-.183-.044-.363-.1-.545-.148a5.414 5.414 0 0 1-.652-.034c-1.66-.211-2.47-.44-3.987-1.005-.048-.018-.055-.026-.1-.043zm-176.662 7.433c.181.122.354.256.51.412 1.558.01 3.115.015 4.673-.01a7.86 7.86 0 0 1-.603-.318c-1.527-.027-3.054-.076-4.58-.084zm122.162 7.734c-.11.039-.218.082-.328.12-.42.15-.808.286-1.207.45-.06.298-.118.595-.17.893.102.527.054 1.065-.028 1.604a141.238 141.238 0 0 1 1.733-3.067zm-58.069 3.729c1.053.1 2.044 1.468 2.721 4.168.356 1.417 1.116 3.809 1.69 5.316l1.04 2.743 6.846-3.762c9.9-5.44 13.956-4.666 9.832 1.877-3.699 5.87-3.36 6.837 3.633 10.367 8.388 4.234 8.27 6.277-.494 8.6-3.477.92-6.512 2.248-6.746 2.949-.234.701 1.058 3.901 2.87 7.111 1.81 3.21 3.292 6.842 3.292 8.07 0 1.962-.424 2.144-3.467 1.495-1.906-.407-5.084-1.404-7.062-2.217-4.907-2.017-7.326-1.858-8.625.57-.604 1.128-1.856 2.809-2.782 3.734-2.844 2.845-3.549 1.938-3.878-4.984l-.319-6.666-8.8.385c-8.092.353-8.8.219-8.8-1.658 0-1.123 1.687-3.678 3.749-5.676l3.75-3.633-6.95-7.002c-3.821-3.851-6.949-7.796-6.949-8.766 0-1.79 3.964-2.601 15.938-3.257 4.445-.244 4.798-.49 5.697-3.993 1.01-3.932 2.461-5.9 3.814-5.771zm116.903 18.514c.019.025.04.05.058.076.55.226 1.077.489 1.579.79.08-.108.165-.215.25-.321a8.468 8.468 0 0 0-1.887-.545zM74.168 62.814c-1.58.092-4.159.245-4.927.28l4.021.011.276-.01c.234-.008.469-.012.703-.02-.015-.03-.024-.064-.041-.095a.275.275 0 0 1-.031-.166zm185.864 2.736c-.473.056-.945.098-1.418.141.47.138.935.291 1.396.469.005-.203.004-.405.022-.61zm-20.115 4.235c-.119.049-.242.084-.362.129l.05.025.312-.154zm-20.774.39c-.075.011-.178.03-.279.047-.035.03-.068.06-.104.088.084-.018.165-.04.247-.062.033-.02.105-.054.136-.073zm-.65.123c-.226.05-.386.092-.166.077-.426.228-.157.084.166-.077zm67.582 12.74c-.15.034-.327.009-.447.102-.115.09-.193.173-.29.258.158-.047.27-.114.737-.36zm80.586.378c.062.537.119.987.21 1.757.009.384.014.767.026 1.15l.23.015a22.297 22.297 0 0 0-.458-2.922h-.008zm-101.983 2.998c-.318.084-.635.17-.95.267-.601.184-1.181.43-1.762.67.173.093.35.172.55.168.054 0-.048-.137 0-.16.166-.078.363-.056.541-.096.144-.031.287-.07.43-.105.37-.204.742-.402 1.111-.61.031-.038.068-.075.084-.113.003-.007-.005-.014-.004-.021zm102.239.875l.002.047c.03-.008.06-.017.091-.024a.446.446 0 0 1-.093-.023zM5.197 94.4l-.009.996c.557-.009 1.115-.011 1.672-.023a.826.826 0 0 1 .006-.453c.017-.052.042-.098.06-.149-.115-.013-.231-.029-.347-.04-.046-.112-.105-.221-.16-.33-.421-.002-.772 0-1.221 0zm188.573 1.258l-.03.027-.015.018-.004.015c.016-.018.033-.042.05-.06zm5.887 2.392c.019.016.035.03.053.043.147.045.368.12.279.082-.109-.045-.221-.084-.332-.125zm18.064 9.75c.016.05.304.102.649.149-.048-.027-.104-.053-.15-.08-.167-.02-.333-.045-.499-.069zm-30.838.592c.163.208.76.839.63.635-.146-.228-.386-.432-.63-.635zm1.38 1.219l.173.129h.022l-.037-.033-.159-.096zm6.97 2.756c.021.014.115.044.088.014l-.002-.002c-.06-.015-.097-.02-.086-.012zM84.55 117.34c-.264.011-.723.026-1.06.038-.016.005-.04.007-.056.011.372-.015.744-.033 1.116-.049zm-2.801.096l-.116.004h.108l.008-.004zM7.866 118.97c-.82.001-1.64.01-2.461.012l.047 3.219h.045c.102-.728.52-1.374.941-2.018.01-.161.028-.327.018-.48.102-.016.204-.035.306-.053.102-.167.21-.334.293-.506.268-.047.536-.098.803-.148l.008-.026zm76.767 1.686c.133.111.256.22.393.332.105 0 .213.003.318.004a1.61 1.61 0 0 1-.466-.334l-.245-.002zm-5.228.137c-.012 0-.025 0-.037.002l-.006.076c.016-.026.028-.052.043-.078zm-.043.078l-.031.052h.027l.004-.052zm-.088-.073c-.627.034-1.254.066-1.88.102.587.006 1.27.016 1.864.021.005-.05.011-.075.016-.123z" fill="#fe1f20"/></svg>