<svg xmlns="http://www.w3.org/2000/svg" height="426" width="426"><circle r="213" cy="213" cx="213" fill="#fff" opacity=".99"/><circle r="188.927" cy="208.147" cx="238.644" fill="none"/><path d="M289.174 143.964c-8.882-.05-15.696 1.1-20.51 3.455-6.741 3.299-8.27 5.354-18.248 24.553-5.222 10.048-6.826 14.066-5.965 14.934.648.652 7.962 4.316 16.252 8.142 8.29 3.826 15.249 7.484 15.463 8.127.229.687-4.143 2.375-10.584 4.088-6.036 1.605-13.736 3.653-17.11 4.549-3.909 1.038-6.132 2.19-6.132 3.18 0 .853 3.36 7.569 7.467 14.923 4.106 7.355 7.466 14.067 7.466 14.914 0 1.798 1.233 2.1-21.59-5.283-9.233-2.987-17.043-5.177-17.355-4.865-.312.312-1.267 4.552-2.123 9.422-2.452 13.944.216 16.82 17.951 19.36 11.564 1.655 14.172.633 16.834-6.6 1.206-3.276 2.45-4.874 3.97-5.104 1.22-.184 7.878.638 14.798 1.828s28.178 4.841 47.24 8.114c19.062 3.272 35.119 6.408 35.682 6.97.562.563.893 3.12.736 5.68-.44 7.149 2.595 9.977 12.656 11.797 15.12 2.734 20.47 1.957 22.455-3.268.561-1.476 2.736-12.608 4.83-24.736 4.111-23.802 4.187-29.125.516-36.32-1.201-2.355-1.828-4.49-1.393-4.743.436-.253 3.542-1.248 6.9-2.212 6.933-1.99 8.82-4.239 6.862-8.176-2.509-5.047-12.496-6.307-18.55-2.34-3.574 2.341-3.92 1.517-6.032-14.32-.98-7.345-2.511-15.105-3.404-17.247-5.698-13.661-26.15-21.582-70.85-27.435-6.83-.894-12.903-1.356-18.232-1.387zm-169.44 7.475c-26.927-.02-43.133 3.277-51.373 10.33-4.997 4.278-5.977 6.282-11.21 22.98-2.048 6.532-4.17 12.326-4.72 12.875-.619.621-1.955.1-3.527-1.377-1.391-1.307-4.303-2.866-6.468-3.464-7.197-1.987-14.569 2.306-12.915 7.52.57 1.794 8.616 6.456 11.143 6.456 2.345 0 2.18 2.391-.373 5.426-5.243 6.231-6.165 12.456-5.773 38.978l.355 24.051 2.992 2.572c2.784 2.394 3.84 2.573 15.14 2.573 11.113 0 12.39-.208 14.98-2.436 2.063-1.775 2.982-3.78 3.39-7.402.331-2.938 1.193-5.21 2.107-5.56.85-.327 23.814-.278 51.03.109l49.482.703.7 4.666c1.284 8.57 2.654 9.335 17.408 9.742l12.89.357 3.207-3.207 3.207-3.209v-14.037c0-10.719-.313-13.933-1.326-13.595-.73.243-5.295 6.403-10.143 13.689-4.848 7.286-9.28 13.404-9.853 13.596-.669.224-.795-8.112-.352-23.346l.69-23.697-4.71.654c-9.56 1.33-31.573 3.06-33.573 2.639-1.664-.35.386-2.955 10.537-13.39 11.18-11.496 12.47-13.203 11.441-15.126-1.794-3.352-4.7-4.406-15.306-5.55-21.223-2.29-70.213-1.104-87.424 2.115-3.037.568-5.33.56-5.688-.02-.33-.534 1.127-6.457 3.239-13.16 3.335-10.59 4.328-12.562 7.578-15.041 5.652-4.311 13.788-5.74 36.757-6.455 32.734-1.02 52.595 1.557 57.463 7.455 1.034 1.252 3.152 1.773 7.202 1.773 6.762 0 7.333-1.419 3.09-7.664-5.868-8.634-19.666-12.376-49.089-13.314a392.489 392.489 0 0 0-12.205-.21zm166.711 4.715c1.415-.003 2.999.002 4.78.01 12.202.055 19.106.707 31.351 2.959 27.537 5.064 39.78 9.532 44.07 16.082 1.6 2.44 4.7 19.067 4.74 25.422.023 3.39-1.653 3.656-7.363 1.168-5.955-2.596-30.419-8.53-47.017-11.405-19.261-3.336-30.12-4.646-46.133-5.566-10.588-.609-12.532-.99-12.52-2.46.026-3.043 11.067-21.734 14.206-24.046 2.405-1.772 3.984-2.143 13.886-2.164zM56.155 224.26c3.173.122 7.062 1.398 11.798 3.832 11.208 5.76 14.253 12.036 7.15 14.74-4.072 1.551-12.696 2.058-18.363 1.078-9.292-1.605-13.518-10.251-8.094-16.558 1.876-2.18 4.335-3.214 7.508-3.092zm318.238 5.965c8.71 0 13.253 10.78 6.99 16.584-2.507 2.323-3.728 2.605-10.932 2.52-9.497-.113-13.687-1.147-16.945-4.182-3.03-2.823-2.988-4.797.168-7.953 2.89-2.891 15.014-6.97 20.719-6.97z"/><path d="M368.206 285.604c-12.214-2.395-13.867-3.852-13.867-12.224 0-4.474-.395-5.8-1.866-6.258-3.067-.954-95.532-16.622-98.118-16.626-1.942-.003-2.613.9-3.611 4.867-1.737 6.896-4.447 8.41-13.512 7.546-11.284-1.075-17.342-2.978-19.733-6.197-1.985-2.672-2.032-3.375-.77-11.486.74-4.751 1.767-8.9 2.284-9.22.516-.32 9.39 2.131 19.72 5.446 10.549 3.385 19.185 5.622 19.702 5.105.518-.518-2.608-7.354-7.13-15.597-4.429-8.071-7.87-15.219-7.649-15.884.222-.665 7.81-3.169 16.863-5.563 11.813-3.125 16.55-4.83 16.783-6.041.24-1.245-3.902-3.604-15.768-8.982-8.851-4.011-16.339-7.69-16.639-8.177-.543-.878 11.595-24.894 15.962-31.582 7.443-11.4 29.416-12.781 71.184-4.475 27.75 5.52 39.452 11.138 44.783 21.502 1.193 2.318 2.893 10.114 4.144 18.995 1.167 8.285 2.407 15.524 2.755 16.087.36.584 1.938.095 3.668-1.137 4.132-2.942 8.674-3.686 13.261-2.172 8.51 2.808 7.24 8.744-2.309 10.786-3.375.723-6.525 1.65-6.999 2.06-.474.41.213 2.807 1.526 5.327 3.75 7.193 3.654 13.24-.59 37.568-2.122 12.162-4.145 22.86-4.495 23.773-.707 1.842-5.898 4.847-8.06 4.664-.762-.065-5.946-1.012-11.519-2.105zm11.755-36.722c5.342-2.763 6.82-8.378 3.762-14.292-2.404-4.649-7.016-6.071-14.603-4.504-20.305 4.194-25.346 14.568-9.32 19.177 5.7 1.64 16.654 1.432 20.16-.381zm-8.117-49.089c-.053-2.328-.706-8.46-1.452-13.626-1.572-10.886-3.745-14.266-11.792-18.344-14.05-7.12-63.784-15.204-79.261-12.883-2.955.443-6.323 1.87-8.26 3.5-3.208 2.7-13.806 22.172-13.806 25.367 0 1.302 1.545 1.619 7.887 1.619 23.973 0 79.645 9.64 98.246 17.013 7.33 2.905 8.554 2.52 8.438-2.646zM37.957 276.607l-2.686-2.686.334-26.38c.313-24.707.482-26.657 2.656-30.72 1.277-2.386 3.077-4.964 4-5.73 2.847-2.363 1.886-4.06-3.3-5.827-9.062-3.088-11.548-7.741-5.741-10.744 5.356-2.77 12.227-1.437 15.994 3.102 2.92 3.52 4.173 1.615 9.07-13.793 5.615-17.664 8.39-21.786 17.32-25.736 9.647-4.266 18.138-5.2 47.269-5.2 28.582 0 37.314.915 46.64 4.89 5.759 2.455 13.093 9.033 13.093 11.743 0 2.852-7.305 3.421-10.667.83-4.108-3.166-9.348-5.265-15.896-6.364-10.348-1.738-39.487-2.325-54.354-1.094-25.012 2.07-27.899 3.975-33.687 22.242-2.088 6.589-3.796 12.536-3.796 13.216 0 1.268 2.38 1.124 18.667-1.128 22.57-3.12 79.923-2.094 86.983 1.557 5.657 2.925 5.035 4.282-8.028 17.507-6.759 6.843-12.289 13.018-12.289 13.721 0 1.653 2.492 1.611 22.295-.375 9.036-.907 16.766-1.265 17.178-.797.412.469.366 10.9-.103 23.182-.469 12.282-.605 22.73-.304 23.217 1.013 1.639 2.704-.406 11.974-14.476l9.227-14.005.3 13.763c.282 12.938.159 13.913-2.053 16.267-2.211 2.353-3.109 2.504-14.966 2.504-14.37 0-16.216-.87-17.438-8.207-.372-2.233-.865-4.665-1.097-5.404-.332-1.06-11.25-1.285-51.916-1.066l-51.497.277-.598 5.214c-.938 8.166-2.903 9.186-17.702 9.186-11.61 0-12.326-.13-14.882-2.686zm38.035-33.075c2.961-1.531 3.698-3.13 3.181-6.906-.394-2.881-4.667-6.466-11.72-9.832-8.811-4.205-14.806-4.505-18.61-.93-6.428 6.036-3.745 15.47 5.23 18.389 4.357 1.417 18.697.945 21.92-.721z"/><path d="M285.67 146.535c-10.805.042-12.744.43-16.13 2.253-2.348 1.263-5.284 3.424-6.528 4.801-2.536 2.807-17.951 31.713-17.274 32.39.24.24 7.373 3.598 15.852 7.462 8.48 3.864 16.135 7.75 17.015 8.636 1.423 1.434 1.407 1.757-.148 2.913-.962.714-9.002 3.177-17.867 5.472-8.865 2.295-16.117 4.634-16.117 5.198 0 .563 3.615 7.525 8.033 15.472 7.6 13.67 8.765 17.252 5.6 17.21-.752-.011-9.515-2.652-19.475-5.868s-18.42-5.848-18.803-5.848c-.382 0-1.292 3.836-2.021 8.524-1.7 10.927-.57 13.116 7.693 14.902 9.012 1.948 18.47 2.561 20.652 1.34 1.094-.612 2.723-3.435 3.621-6.273 1.174-3.71 2.246-5.247 3.815-5.471 2.715-.389 96.123 15.435 99.418 16.842 2.06.88 2.4 1.827 2.4 6.709 0 8.252 1.22 9.339 12.916 11.5 13.2 2.438 13.202 2.439 16.35-.34 2.442-2.156 3.098-4.6 6.459-24.043 4.573-26.457 4.664-30.472.865-38.23-3.05-6.229-2.604-7.805 2.219-7.844 3.84-.032 10.15-2.463 10.803-4.165.416-1.085-.365-2.59-2.137-4.115-3.948-3.396-10.052-3.238-14.342.371-3.261 2.745-6.45 2.84-6.482.194-.08-6.46-4.572-31.412-6.243-34.67-5.35-10.435-18.065-15.891-51.875-22.264-13.241-2.496-18.942-3.023-33.066-3.058-1.935-.005-3.66-.006-5.203 0zm-.207 7.044c19.87-.044 60.61 6.83 73.135 13.176 4.753 2.409 11.742 9.078 11.742 11.205 0 .546.746 6.351 1.66 12.9.914 6.55 1.408 12.568 1.1 13.372-.72 1.877-3.402 1.794-8.094-.248-16.932-7.368-74.54-17.447-99.91-17.48-6-.009-8.859-.426-9.182-1.344-.685-1.947 10.205-23.227 13.645-26.665 1.613-1.611 4.909-3.472 7.324-4.132 1.937-.53 4.9-.775 8.58-.784zm-162.057.41c-32.041-.031-37.915.634-48.217 5.471-8.349 3.92-10.375 7.092-16.06 25.13-2.81 8.912-5.725 16.295-6.56 16.616-.837.322-2.493-.624-3.733-2.13-4.12-5.008-9.466-6.392-14.98-3.88-5.382 2.453-2.803 6.424 6.218 9.577 2.274.794 4.356 2.024 4.627 2.73.271.707-.805 2.988-2.392 5.069-5.266 6.903-5.739 9.876-5.79 36.384-.052 27.418.091 28.035 6.794 29.143 6.098 1.008 22.722-.2 24.283-1.766.746-.747 1.607-3.868 1.916-6.933l.56-5.574 50.668-.295c27.867-.163 51.747-.034 53.067.287 1.928.468 2.398 1.325 2.398 4.365 0 3.888 1.555 7.843 3.627 9.227.646.43 6.739.791 13.541.8 16.27.022 16.078.218 15.67-16.025l-.303-12.059-8.95 13.518c-8.234 12.435-10.778 15.046-12.284 12.61-.308-.499-.149-11.178.353-23.733.503-12.555.76-22.995.573-23.197-.188-.203-9.027.481-19.645 1.52-14.06 1.373-19.624 1.566-20.48.71-.856-.856 1.101-3.586 7.203-10.05 19.617-20.784 17.692-18.216 15.383-20.53-2.717-2.722-8.92-3.496-35.221-4.402-22.649-.781-49.536.547-63.008 3.113-7.533 1.435-9.525 1.26-9.525-.838 0-.734 1.724-6.815 3.83-13.512 4.489-14.274 7.55-18.279 15.875-20.773 13.191-3.952 58.81-4.545 75.761-.985 4.617.97 9.197 2.783 11.997 4.75 3.512 2.468 5.246 3.037 7.732 2.54 1.763-.353 3.205-1.024 3.205-1.493 0-1.858-5.83-7.625-9.71-9.605-9.599-4.897-16.738-5.748-48.423-5.78zM55.904 222.29c3.091.039 6.817 1.18 11.526 3.428 12.963 6.189 16.822 13.807 9.31 18.387-2.721 1.66-5.3 2.1-12 2.056-10.813-.07-15.244-1.592-18.45-6.335-3.261-4.824-2.593-9.849 1.905-14.346 2.163-2.163 4.618-3.228 7.71-3.19zm318.594 6.084c11.815.204 16.702 15.763 5.43 21.592-6.7 3.465-24.089.884-28.485-4.226-3.102-3.608-3.062-5.007.26-8.955 2.776-3.3 11.678-6.906 20.342-8.24.846-.131 1.665-.184 2.453-.17z"/><path d="M203.824 147.652c-.49-.138-1.365 2.173-2.017 5.394-4.68 23.105-4.71 23.206-7.467 24.6-1.467.742-6.028 1.36-10.135 1.373-9.262.03-18.666 1.113-18.666 2.148 0 .428 4.32 5.198 9.6 10.6 5.28 5.402 9.601 10.254 9.601 10.781 0 .527-3.6 4.915-8 9.754-4.4 4.839-8 9.177-8 9.64 0 .464 1.8.59 4 .28 8.961-1.26 24.326-2.415 25.18-1.89.502.307.568 7.22.146 15.36-.558 10.78-.438 14.802.444 14.802.666 0 4.416-4.92 8.332-10.934 3.916-6.013 7.625-11.304 8.242-11.756 1.554-1.14 5.71-.288 18.723 3.84 6.16 1.954 11.324 3.261 11.476 2.904.152-.357-2.367-5.435-5.6-11.285-3.232-5.85-5.876-11.424-5.876-12.387 0-1.708 1.414-2.197 21.2-7.328 2.814-.73 4.285-1.597 3.698-2.183-.535-.536-6.237-3.327-12.67-6.204-8.503-3.802-11.782-5.798-12.014-7.31-.175-1.144 1.625-6.561 4-12.037 2.376-5.476 4.319-10.357 4.319-10.848 0-.49-5.792 2.03-12.87 5.604-7.077 3.574-13.492 6.26-14.255 5.966-.764-.292-3.429-6.693-5.922-14.222s-4.912-14.099-5.377-14.602a.2.2 0 0 0-.092-.06zm114.666 7.773c.02.304.028.607.051.91 1.436.091 3.489.23 5.357.348-.041-.01-.083-.017-.125-.027-.183-.044-.363-.1-.544-.149a5.414 5.414 0 0 1-.653-.033c-1.659-.211-2.469-.44-3.986-1.006-.048-.018-.056-.026-.1-.043zm-176.662 7.434c.181.122.354.255.51.412 1.558.009 3.116.014 4.674-.01a7.86 7.86 0 0 1-.604-.319c-1.526-.027-3.053-.075-4.58-.084zm122.162 7.734c-.11.038-.218.082-.328.12-.42.149-.807.286-1.207.45-.06.297-.118.594-.17.893.103.527.054 1.065-.027 1.604a141.238 141.238 0 0 1 1.732-3.067zm-58.068 3.729c1.052.1 2.043 1.468 2.72 4.168.356 1.416 1.117 3.808 1.69 5.316l1.041 2.742 6.846-3.762c9.9-5.44 13.955-4.665 9.832 1.877-3.7 5.87-3.36 6.838 3.633 10.368 8.388 4.234 8.27 6.277-.495 8.6-3.476.92-6.512 2.247-6.746 2.948-.233.702 1.058 3.902 2.87 7.112 1.811 3.21 3.292 6.841 3.292 8.07 0 1.961-.423 2.143-3.466 1.494-1.907-.407-5.085-1.403-7.063-2.217-4.907-2.016-7.325-1.857-8.625.57-.603 1.128-1.855 2.81-2.781 3.735-2.845 2.845-3.55 1.938-3.879-4.984l-.318-6.666-8.801.384c-8.091.354-8.799.22-8.799-1.658 0-1.123 1.686-3.677 3.748-5.676l3.75-3.632-6.95-7.002c-3.821-3.852-6.948-7.796-6.948-8.766 0-1.79 3.964-2.602 15.937-3.258 4.445-.243 4.798-.49 5.697-3.992 1.01-3.932 2.462-5.9 3.815-5.771zm116.902 18.513l.059.076c.549.227 1.077.49 1.578.792.081-.11.166-.216.25-.323a8.468 8.468 0 0 0-1.887-.545zm-219.369 13.942c-1.58.091-4.16.245-4.928.279l4.022.012.275-.01c.235-.008.469-.012.703-.02-.015-.031-.024-.064-.04-.095a.275.275 0 0 1-.032-.167zm185.863 2.736c-.472.055-.945.098-1.418.14.47.139.936.292 1.397.47.005-.203.004-.406.021-.61zm-20.115 4.234c-.119.05-.241.085-.361.13.017.007.032.017.049.025l.312-.155zm-20.773.391c-.075.01-.179.029-.28.047-.034.03-.067.06-.103.088.083-.019.165-.04.246-.063.033-.019.106-.054.137-.072zm-.65.123c-.226.05-.386.091-.167.076-.426.229-.156.085.166-.076zm67.581 12.74c-.149.034-.326.008-.447.102-.115.09-.193.172-.289.258.158-.048.269-.114.736-.36zm80.586.377c.063.537.12.988.211 1.758.008.384.014.767.026 1.15l.23.014a22.297 22.297 0 0 0-.459-2.922h-.008zm-101.982 2.998c-.319.085-.636.171-.951.268-.601.184-1.18.43-1.762.67.174.093.351.171.55.168.054-.001-.048-.137 0-.16.166-.079.363-.057.542-.096.144-.032.286-.07.43-.106.37-.203.742-.401 1.11-.609.032-.038.068-.075.085-.113.003-.007-.005-.015-.004-.022zm102.238.875l.002.047.092-.023a.446.446 0 0 1-.094-.024zm-361.719 7.112l-.01.996c.558-.01 1.115-.012 1.672-.024a.826.826 0 0 1 .006-.453c.017-.052.042-.098.06-.148-.115-.013-.23-.029-.347-.041-.046-.112-.105-.22-.16-.33h-1.22zm188.573 1.257l-.03.028-.015.017-.004.016c.016-.018.032-.042.049-.06zm5.886 2.393l.053.043c.148.044.369.12.28.082-.11-.046-.222-.084-.333-.125zm18.065 9.75c.016.05.304.102.648.148-.047-.027-.104-.052-.15-.08-.167-.02-.332-.044-.498-.068zm-30.838.592c.163.208.76.838.629.635-.146-.228-.386-.432-.63-.635zm1.379 1.219l.174.128h.021l-.037-.033c-.064-.04-.087-.052-.158-.095zm6.97 2.755c.021.015.115.045.088.014l-.002-.002c-.06-.014-.097-.02-.085-.012zm-110.683 4.975c-.264.011-.723.025-1.059.037-.016.005-.04.007-.056.012l1.115-.049zm-2.8.096c-.046 0-.07.003-.116.004h.107l.008-.004zm-73.884 1.533c-.82 0-1.64.009-2.46.012l.046 3.218h.045c.102-.728.52-1.373.942-2.017.009-.162.028-.327.017-.48.103-.016.205-.036.307-.053.102-.168.209-.334.293-.506.268-.048.535-.098.803-.149.001-.008.006-.017.007-.025zm76.768 1.685c.132.112.255.22.393.333.105 0 .213.003.318.004a1.61 1.61 0 0 1-.467-.334l-.244-.002zm-5.229.137c-.012 0-.024 0-.037.002l-.006.076c.016-.026.028-.052.043-.078zm-.043.078l-.03.053h.027c0-.018.003-.035.004-.053zm-.087-.072c-.627.034-1.254.066-1.881.102l1.865.021c.005-.05.01-.076.015-.123z" fill="#fe1f20"/></svg>